<svg width="40" height="30" viewBox="0 0 40 30" xmlns="http://www.w3.org/2000/svg">
	<style type="text/css">
		.st0{fill:url(#SVGID_1_);}
		.st1{fill-rule:evenodd;clip-rule:evenodd;fill:#FFFFFF;}
	</style>
	<linearGradient id="SVGID_1_" gradientUnits="userSpaceOnUse" x1="9.0601" y1="-0.3256" x2="31.8041" y2="35.6944" gradientTransform="matrix(1 0 0 -1 0 32)">
		<stop  offset="0" style="stop-color:#1A1E5A"/>
		<stop  offset="1" style="stop-color:#122D98"/>
	</linearGradient>
	<path class="st0" d="M3,0h34c1.66,0,3,1.34,3,3v24c0,1.66-1.34,3-3,3H3c-1.66,0-3-1.34-3-3V3C0,1.34,1.34,0,3,0z"/>
	<path class="st1" d="M16.77,10.58h2.27l-1.42,8.67h-2.27C15.35,19.25,16.77,10.58,16.77,10.58z M25.85,10.86 c-0.65-0.25-1.34-0.37-2.03-0.36c-2.24,0-3.82,1.18-3.83,2.86c-0.01,1.25,1.13,1.94,1.99,2.36c0.88,0.42,1.18,0.7,1.17,1.08 c0,0.58-0.7,0.85-1.36,0.85c-0.91,0-1.39-0.13-2.13-0.45l-0.29-0.14l-0.32,1.94c0.53,0.24,1.51,0.45,2.52,0.46 c2.38,0,3.93-1.16,3.95-2.96c0.01-0.99-0.6-1.74-1.9-2.35c-0.79-0.4-1.28-0.67-1.27-1.07c0-0.36,0.41-0.75,1.3-0.75 c0.58-0.01,1.16,0.1,1.7,0.33l0.2,0.1C25.55,12.74,25.85,10.86,25.85,10.86z M31.67,10.66h-1.75c-0.54,0-0.95,0.15-1.19,0.72 l-3.37,7.95h2.38c0,0,0.39-1.07,0.48-1.3l2.9,0c0.07,0.3,0.28,1.3,0.28,1.3h2.1L31.67,10.66z M28.87,16.25l0.9-2.42 c-0.01,0.02,0.19-0.5,0.3-0.83l0.15,0.75l0.52,2.5H28.87z M13.46,10.66l-2.22,5.91l-0.24-1.2c-0.41-1.39-1.7-2.89-3.14-3.64 l2.03,7.58l2.4,0l3.57-8.65C15.86,10.66,13.46,10.66,13.46,10.66z"/>
	<path class="st1" d="M9.18,10.65H5.53L5.5,10.83c2.84,0.72,4.73,2.45,5.51,4.54l-0.8-3.98C10.08,10.83,9.68,10.67,9.18,10.65 L9.18,10.65z"/>
	<path class="st1" d="M7.96,12.06c-0.05-0.18-0.1-0.29-0.28-0.39l0.67,0.31"/>
</svg>
