<svg version="1.1" xmlns="http://www.w3.org/2000/svg" xmlns:xlink="http://www.w3.org/1999/xlink" x="0px" y="0px" viewBox="0 0 180 60" xml:space="preserve">
	<g class="logo-sign" fill="#2898C9" stroke="#2898C9">
		<path stroke-width="0.3" d="M30,0.5C21.1,0.5,0.5,21.1,0.5,30S21.1,59.5,30,59.5S59.5,38.8,59.5,30S38.8,0.5,30,0.5z M36.9,55.8
			C29.2,57.9,6.3,44.7,4.2,36.9S15.3,6.3,23.1,4.2s30.6,11.1,32.7,18.9C57.9,30.9,44.7,53.7,36.9,55.8z"/>
		<path stroke-width="0.3" d="M36,19.5c-3.1-1.8-14.8,1.3-16.5,4.4s1.3,14.7,4.4,16.5s14.8-1.3,16.5-4.4S39.2,21.3,36,19.5z M40.5,32.8
			c-0.8,3.1-10.1,8.5-13.3,7.7c-3.1-0.8-8.5-10.1-7.7-13.3s10.1-8.5,13.3-7.7S41.3,29.7,40.5,32.8z"/>
		<path stroke-width="0.3" d="M20.1,12.8c-5.2,2.9-10.2,21.9-7.3,27.1s21.9,10.2,27.1,7.3c5.2-3,10.2-21.9,7.3-27.1
			C44.2,14.9,25.2,9.8,20.1,12.8z M42.6,42.6c-3.8,3.8-21.4,3.8-25.2,0s-3.8-21.4,0-25.2s21.4-3.8,25.2,0S46.4,38.8,42.6,42.6z"/>
		<path stroke-width="0.3" d="M30,23.1c-2.1,0-6.9,4.8-6.9,6.9s4.8,6.9,6.9,6.9s6.9-4.8,6.9-6.9S32.1,23.1,30,23.1z M31.6,35.9
			c-1.8,0.5-7-2.6-7.5-4.3s2.6-7,4.3-7.5s7,2.6,7.5,4.3C36.4,30.2,33.4,35.4,31.6,35.9z"/>
	</g>
	<g class="logo-title" fill="#ffffff">
		<path d="M92.1,45.6h-1c-0.2,0-0.4-0.1-0.5-0.4l-4.1-10H70.2l-4.1,10c-0.1,0.3-0.2,0.4-0.5,0.4h-0.9L77.8,14H79
			L92.1,45.6z M86.1,34.3l-7.2-17.6c-0.2-0.4-0.3-0.9-0.5-1.4c-0.1,0.5-0.3,0.9-0.5,1.4l-7.2,17.6H86.1z"/>
		<path d="M108.5,44.9c1.6,0,3.1-0.3,4.4-0.9s2.4-1.4,3.3-2.4s1.6-2.2,2-3.5c0.5-1.4,0.7-2.8,0.7-4.4V14h1.3v19.8
			c0,1.7-0.3,3.3-0.8,4.8s-1.3,2.8-2.3,3.9c-1,1.1-2.2,2-3.7,2.6c-1.4,0.6-3,1-4.8,1s-3.4-0.3-4.9-1c-1.4-0.6-2.7-1.5-3.7-2.6
			c-1-1.1-1.8-2.4-2.3-3.9s-0.8-3.1-0.8-4.8V14h1.2v19.7c0,1.6,0.2,3,0.7,4.4c0.5,1.4,1.2,2.6,2,3.6c0.9,1,2,1.8,3.3,2.4
			S106.9,44.9,108.5,44.9z"/>
		<path d="M150.8,45.6h-1c-0.2,0-0.3,0-0.4-0.1c-0.1,0-0.3-0.1-0.4-0.3l-11.2-13.7c-0.1-0.2-0.2-0.3-0.4-0.4
			c-0.1-0.1-0.3-0.2-0.4-0.3c-0.2-0.1-0.3-0.1-0.6-0.1c-0.2,0-0.5,0-0.8,0H131v14.9h-1.2V14h7.6c3.4,0,6,0.7,7.8,2s2.7,3.4,2.7,6.1
			c0,1.2-0.2,2.4-0.7,3.4c-0.5,1-1.1,1.9-2,2.6c-0.8,0.7-1.9,1.3-3.1,1.8s-2.5,0.7-4,0.8c0.3,0.2,0.5,0.4,0.8,0.7L150.8,45.6z
			M131,29.8h6c1.5,0,2.8-0.2,4-0.5c1.2-0.4,2.2-0.9,3-1.5c0.8-0.7,1.5-1.5,1.9-2.4c0.4-0.9,0.7-2,0.7-3.2c0-2.4-0.8-4.2-2.4-5.4
			c-1.6-1.2-3.9-1.7-6.9-1.7H131V29.8z"/>
		<path d="M179.8,45.6h-1c-0.2,0-0.4-0.1-0.5-0.4l-4.1-10H158l-4.1,10c-0.1,0.3-0.2,0.4-0.5,0.4h-0.9L165.6,14h1.2
			L179.8,45.6z M173.9,34.3l-7.2-17.6c-0.2-0.4-0.3-0.9-0.5-1.4c-0.1,0.5-0.3,0.9-0.5,1.4l-7.2,17.6H173.9z"/>
	</g>
</svg>
