<svg version="1.1" id="Layer_1" xmlns="http://www.w3.org/2000/svg" xmlns:xlink="http://www.w3.org/1999/xlink" x="0px" y="0px"
	 viewBox="0 0 60 60" style="enable-background:new 0 0 60 60;" xml:space="preserve">
<path fill="#F7F9FC" d="M30,0C21,0,0,21,0,30s21,30,30,30s30-21,30-30S39,0,30,0z M37,56.23C29.15,58.35,5.88,44.91,3.77,37S15.09,5.88,23,3.77S54.12,15.09,56.23,23S44.91,54.12,37,56.23z"/>
<path fill="#F7F9FC" d="M36.15,19.34c-3.2-1.85-15,1.31-16.81,4.51s1.31,15,4.51,16.81s15-1.31,16.81-4.51S39.35,21.19,36.15,19.34z M40.65,32.85c-0.86,3.2-10.3,8.66-13.5,7.8s-8.66-10.3-7.8-13.5s10.3-8.66,13.5-7.8S41.51,29.65,40.65,32.85z"/>
<path fill="#F7F9FC" d="M19.91,12.52c-5.25,3-10.42,22.32-7.39,27.57s22.32,10.42,27.57,7.39s10.42-22.32,7.39-27.57S25.16,9.49,19.91,12.52zM42.79,42.79c-3.84,3.84-21.74,3.84-25.58,0s-3.84-21.74,0-25.58s21.74-3.84,25.58,0S46.63,39,42.79,42.79z"/>
<path fill="#F7F9FC" d="M30,23c-2.09,0-7,4.87-7,7s4.87,7,7,7s7-4.87,7-7S32.09,23,30,23z M31.61,36c-1.81,0.48-7.15-2.6-7.64-4.41s2.6-7.16,4.41-7.65s7.16,2.6,7.65,4.41S33.43,35.54,31.61,36z"/>
</svg>
