<?xml version="1.0" encoding="utf-8"?>
<!-- Generator: Adobe Illustrator 23.0.4, SVG Export Plug-In . SVG Version: 6.00 Build 0)  -->
<svg version="1.1" id="Layer_1" xmlns="http://www.w3.org/2000/svg" xmlns:xlink="http://www.w3.org/1999/xlink" x="0px" y="0px"
	 viewBox="0 0 56.95 60" style="enable-background:new 0 0 56.95 60;" xml:space="preserve">
<style type="text/css">
	.st0{fill:#F7F9FC;}
</style>
<title>logo-aura</title>
<path class="st0" d="M23.85,40.66c3.2,1.85,15-1.31,16.81-4.51c1.81-3.2-1.31-15-4.51-16.81s-15,1.31-16.81,4.51
	S20.65,38.81,23.85,40.66z M19.35,27.15c0.86-3.2,10.3-8.66,13.5-7.8s8.66,10.3,7.8,13.5s-10.3,8.66-13.5,7.8
	S18.49,30.35,19.35,27.15z"/>
<path class="st0" d="M40.09,47.48c5.25-3,10.42-22.32,7.39-27.57c-3.03-5.25-22.32-10.42-27.57-7.39S9.49,34.84,12.52,40.09
	S34.84,50.51,40.09,47.48z M17.21,17.21c3.84-3.84,21.74-3.84,25.58,0s3.84,21.74,0,25.58s-21.74,3.84-25.58,0S13.37,21,17.21,17.21
	z"/>
<path class="st0" d="M30,37c2.09,0,7-4.87,7-7s-4.87-7-7-7s-7,4.87-7,7S27.91,37,30,37z M28.39,24c1.81-0.48,7.15,2.6,7.64,4.41
	c0.49,1.81-2.6,7.16-4.41,7.65c-1.81,0.49-7.16-2.6-7.65-4.41S26.57,24.46,28.39,24z"/>
<path class="st0" d="M30,60c6.89,0,20.8-12.31,26.95-22.11V22.11C50.8,12.31,36.89,0,30,0C21,0,0,21,0,30S21,60,30,60z M23,3.77
	C30.85,1.65,54.12,15.09,56.23,23S44.91,54.12,37,56.23C29.09,58.34,5.88,44.91,3.77,37C1.66,29.09,15.09,5.88,23,3.77z"/>
</svg>
