<svg version="1.1" xmlns="http://www.w3.org/2000/svg" xmlns:xlink="http://www.w3.org/1999/xlink" x="0px" y="0px" viewBox="0 0 56.95 60" xml:space="preserve">
	<g fill="#FFFFFF">
		<path class="st0" d="M33.1,19.34c-3.2-1.85-15,1.31-16.81,4.51s1.31,15,4.51,16.81s15-1.31,16.81-4.51S36.3,21.19,33.1,19.34zM37.6,32.85c-0.86,3.2-10.3,8.66-13.5,7.8s-8.66-10.3-7.8-13.5c0.86-3.2,10.3-8.66,13.5-7.8S38.46,29.65,37.6,32.85z"/>
		<path class="st0" d="M16.86,12.52c-5.25,3-10.42,22.32-7.39,27.57s22.32,10.42,27.57,7.39s10.42-22.32,7.39-27.57S22.11,9.49,16.86,12.52z M39.74,42.79c-3.84,3.84-21.74,3.84-25.58,0s-3.84-21.74,0-25.58s21.74-3.84,25.58,0S43.58,39,39.74,42.79z"/>
		<path class="st0" d="M26.95,23c-2.09,0-7,4.87-7,7s4.87,7,7,7s7-4.87,7-7S29.04,23,26.95,23z M28.56,36c-1.81,0.48-7.15-2.6-7.64-4.41s2.6-7.16,4.41-7.65s7.16,2.6,7.65,4.41S30.38,35.54,28.56,36z"/>
		<path class="st0" d="M26.95,0C20.06,0,6.15,12.31,0,22.11v15.77C6.15,47.69,20.06,60,26.95,60c9,0,30-21,30-30S35.95,0,26.95,0zM33.95,56.23C26.1,58.35,2.83,44.91,0.72,37S12.04,5.88,19.95,3.77C27.86,1.66,51.07,15.09,53.18,23C55.29,30.91,41.86,54.12,33.95,56.23z"/>
	</g>
</svg>
