<svg version="1.1" xmlns="http://www.w3.org/2000/svg" xmlns:xlink="http://www.w3.org/1999/xlink" x="0px" y="0px" viewBox="0 0 300 100" xml:space="preserve">
	<g>
		<path d="M85.5,37.8c1.1-2.2,1.3-4.2,0.6-6.3c-0.6-1.8-2.2-3.9-3.8-5.3c-2.3-2-5.8-1.7-9.7-0.2C64.5,29.1,51.7,42.1,52,57.4
			c0.1,5.9,3,10.4,6.2,12.1c3.9,2.1,9.9,2.2,15-1.5c3-2.2,7.6-7.6,5.8-12.4c-0.4-0.9-1.2-0.9-1.5-0.1C72.1,66.2,64.4,71,59.8,67.3
			c-3.5-2.9-4.2-13.5,2.1-24c6.5-10.7,17.4-16.6,19.4-14.4c1.7,1.7-0.9,5.8-2.1,9.6c-1.1,3.6,0.1,5.8,1.7,6.9
			c0.9,0.6,1.4,0.1,1.6-0.4C83.4,42.9,84.4,40.1,85.5,37.8z"/>
		<path d="M144.6,42.1c0.9-1,1.4-3,0.5-4.8c-0.9-1.9-3-2.8-4.2-1.6c-1.2,1.2-1.5,3.4-0.4,5.3C141.6,42.9,143.6,43.1,144.6,42.1z"/>
		<path d="M237,59.4c-2.2,5-6.1,9.7-9.4,9.9c-2.3,0.1-2.4-2.7-0.7-6.8c1.5-3.6,4.5-8.5,6-11.7c1.7-3.6,1.2-6.7,0.1-7.8
			c-0.6-0.6-1.1-0.4-1.7,0.4c-2.7,3.7-7.4,12.2-9.2,17.5c-0.2,0.7-0.4,1.4-0.6,2c-2.2,3.8-4.9,6.6-7.2,6.5c-2.2-0.1-3-3-1.8-6.9
			c1.2-3.6,4.8-8.6,8.2-12.5c2.1-2.4,0.4-5.8-1-7.3c-0.6-0.7-1.2-0.6-2.2,0.1c-2.7,1.9-5.4,3.1-8,3.4c1.5-5,2.2-9.2,0-9.1
			c-2.9,0.2-9.7,10-3.9,12.1c-3.4,10.6-9.9,19.4-14.5,19.9c-2.2,0.2-2.5-2.4-0.8-6.6c1.6-3.7,5.4-9.3,6.8-12.5
			c1.6-3.6,1.1-6.6-0.1-7.9c-0.6-0.6-1.2-0.4-1.7,0.4c-0.5,0.7-1.4,2.2-2.5,4c0-2.5-1.4-4.8-4.2-4.8c-3.7,0-9.4,3.3-15.1,11.6
			c-1.7,2.5-2.8,5.1-3.4,7.5c-2.4,4.5-6.6,8.9-13,9.2c2.7-1.7,5.4-5.1,7.6-9.9c2.7-5.9,4.2-12.3,0.8-16c-3.1-3.2-7.3-1.2-10.5,1.5
			c0.1-1.2-0.1-2.3-0.4-3.2c-0.4-0.9-1-1-1.7-0.1c-2.9,3.8-8.7,14.2-13.2,23.2c-1.8,2.2-3.8,3.7-5.6,3.7c-2.3,0.1-2.4-2.7-0.7-6.8
			c1.5-3.6,4.5-8.5,6-11.7c1.7-3.6,1.2-6.7,0.1-7.8c-0.6-0.6-1.1-0.4-1.7,0.4c-2.7,3.7-7.4,12.2-9.2,17.5c0,0.1,0,0.1,0,0.2
			c-2.9,4.6-7,8.4-10,8.2c-3.2-0.3-2.4-6.3,0.4-13.3c6.4-4.2,14.5-12.8,16.7-21.7c0.9-3.4,0.4-6-1.7-7.9c-1-0.9-2-0.8-3.1,0.4
			c-7.3,7.6-15.6,20.7-18.2,33.2c-0.1,0.4-0.1,0.7-0.2,1.1c-2.5,4.4-6,8.4-8.7,8.6c-2.4,0.1-2.4-3-0.6-7c1.7-3.8,5.3-9.2,6.9-12.5
			c1.7-3.6,1.2-6.7,0.1-8c-0.5-0.6-1.1-0.5-1.7,0.4c-0.8,1.2-1.7,2.7-2.6,4.4c0.1-2.8-1.3-5.2-4.4-5.2c-3.6,0-9.3,3.2-15.1,11.7
			c-6,8.7-4.6,17.9,2.1,17.9c3.5,0,6.7-2.7,9-5.6c0,3.4,2,5.7,5.9,5.9c3.2,0.2,6.7-2.4,9-5.4c0.7,3.4,2.9,5,6.3,5.1
			c3.5,0.1,6.9-2.1,9.2-4.3c0.4,2.7,2.2,4.5,5.6,4.5c1.3,0,2.6-0.3,3.9-0.9c-1.5,3.2-2.7,6-3.2,7.7c-1.4,4.4-1,6.4,0.1,7.9
			c0.4,0.6,0.9,0.5,1.2-0.1c3.5-8,7.1-15.3,10.5-21.5c0.2,1.8,0.9,3.5,2.4,4.8c2.5,2.3,5.5,3,10.2,2.7c4.5-0.3,8.7-2.1,11.6-5.8
			c0.6,3,2.6,5,5.6,5c3.5,0,6.8-2.8,9.1-5.8c-0.1,3.7,2.1,6.2,6,5.9c7.7-0.6,14.2-11.4,17.7-21.6c2.2,0,5.3-0.8,8.5-2.7
			c-3.1,3.5-7.5,8.8-8.9,13.5c-1.7,5.8,0.4,10.7,5.9,10.9c2.7,0.1,5.5-1.3,7.6-3.6c0.7,2.2,2.4,3.5,5.4,3.5c4,0,8.6-3,10.7-7.5
			c0.9-1.8,1.1-3.3,0.5-4.5C237.9,58.8,237.4,58.8,237,59.4z M121.9,49.3c5-9.2,10.3-17.2,11.2-16.6c0.9,0.6-3.1,12.1-13,20.1
			C120.7,51.6,121.2,50.5,121.9,49.3z M89.2,68.9c-2.8-0.1-1.9-6.4,1.9-12.6c4-6.4,9.2-11.1,11.5-10.9c2.1,0.2,1.4,4.7-3.1,12.6
			C95.9,64.4,92.2,69,89.2,68.9z M149.8,67.8c-2-1.7-1.7-6,0.1-10.5c0.9-1.5,1.7-2.8,2.4-4.1c3.4-5.5,7.8-9.1,9.6-8.3
			c1.8,0.9,1,6.8-1.8,12.6C156.7,64.4,152.1,69.6,149.8,67.8z M176.5,68.7c-2.8-0.1-2-6.3,1.9-12.5c4-6.3,9.2-10.9,11.4-10.8
			c2.1,0.1,1.4,4.7-3,12.5C183.1,64.4,179.3,68.8,176.5,68.7z"/>
		<path d="M238.2,42.1c0.9-1,1.4-3,0.5-4.8c-0.9-1.9-3-2.8-4.2-1.6c-1.2,1.2-1.5,3.4-0.4,5.3C235.2,42.9,237.2,43.1,238.2,42.1z"/>
	</g>
	<g fill="#00A5E8">
		<path d="M85.5,35.8c1.1-2.2,1.3-4.2,0.6-6.3c-0.6-1.8-2.2-3.9-3.8-5.3c-2.3-2-5.8-1.7-9.7-0.2
			C64.5,27.1,51.7,40.1,52,55.4c0.1,5.9,3,10.4,6.2,12.1c3.9,2.1,9.9,2.2,15-1.5c3-2.2,7.6-7.6,5.8-12.4c-0.4-0.9-1.2-0.9-1.5-0.1
			C72.1,64.2,64.4,69,59.8,65.3c-3.5-2.9-4.2-13.5,2.1-24c6.5-10.7,17.4-16.6,19.4-14.4c1.7,1.7-0.9,5.8-2.1,9.6
			c-1.1,3.6,0.1,5.8,1.7,6.9c0.9,0.6,1.4,0.1,1.6-0.4C83.4,40.9,84.4,38.1,85.5,35.8z"/>
		<path d="M144.6,40.1c0.9-1,1.4-3,0.5-4.8c-0.9-1.9-3-2.8-4.2-1.6c-1.2,1.2-1.5,3.4-0.4,5.3
			C141.6,40.9,143.6,41.1,144.6,40.1z"/>
		<path d="M237,57.4c-2.2,5-6.1,9.7-9.4,9.9c-2.3,0.1-2.4-2.7-0.7-6.8c1.5-3.6,4.5-8.5,6-11.7c1.7-3.6,1.2-6.7,0.1-7.8
			c-0.6-0.6-1.1-0.4-1.7,0.4c-2.7,3.7-7.4,12.2-9.2,17.5c-0.2,0.7-0.4,1.4-0.6,2c-2.2,3.8-4.9,6.6-7.2,6.5c-2.2-0.1-3-3-1.8-6.9
			c1.2-3.6,4.8-8.6,8.2-12.5c2.1-2.4,0.4-5.8-1-7.3c-0.6-0.7-1.2-0.6-2.2,0.1c-2.7,1.9-5.4,3.1-8,3.4c1.5-5,2.2-9.2,0-9.1
			c-2.9,0.2-9.7,10-3.9,12.1c-3.4,10.6-9.9,19.4-14.5,19.9c-2.2,0.2-2.5-2.4-0.8-6.6c1.6-3.7,5.4-9.3,6.8-12.5
			c1.6-3.6,1.1-6.6-0.1-7.9c-0.6-0.6-1.2-0.4-1.7,0.4c-0.5,0.7-1.4,2.2-2.5,4c0-2.5-1.4-4.8-4.2-4.8c-3.7,0-9.4,3.3-15.1,11.6
			c-1.7,2.5-2.8,5.1-3.4,7.5c-2.4,4.5-6.6,8.9-13,9.2c2.7-1.7,5.4-5.1,7.6-9.9c2.7-5.9,4.2-12.3,0.8-16c-3.1-3.2-7.3-1.2-10.5,1.5
			c0.1-1.2-0.1-2.3-0.4-3.2c-0.4-0.9-1-1-1.7-0.1c-2.9,3.8-8.7,14.2-13.2,23.2c-1.8,2.2-3.8,3.7-5.6,3.7c-2.3,0.1-2.4-2.7-0.7-6.8
			c1.5-3.6,4.5-8.5,6-11.7c1.7-3.6,1.2-6.7,0.1-7.8c-0.6-0.6-1.1-0.4-1.7,0.4c-2.7,3.7-7.4,12.2-9.2,17.5c0,0.1,0,0.1,0,0.2
			c-2.9,4.6-7,8.4-10,8.2c-3.2-0.3-2.4-6.3,0.4-13.3c6.4-4.2,14.5-12.8,16.7-21.7c0.9-3.4,0.4-6-1.7-7.9c-1-0.9-2-0.8-3.1,0.4
			c-7.3,7.6-15.6,20.7-18.2,33.2c-0.1,0.4-0.1,0.7-0.2,1.1c-2.5,4.4-6,8.4-8.7,8.6c-2.4,0.1-2.4-3-0.6-7c1.7-3.8,5.3-9.2,6.9-12.5
			c1.7-3.6,1.2-6.7,0.1-8c-0.5-0.6-1.1-0.5-1.7,0.4c-0.8,1.2-1.7,2.7-2.6,4.4c0.1-2.8-1.3-5.2-4.4-5.2c-3.6,0-9.3,3.2-15.1,11.7
			c-6,8.7-4.6,17.9,2.1,17.9c3.5,0,6.7-2.7,9-5.6c0,3.4,2,5.7,5.9,5.9c3.2,0.2,6.7-2.4,9-5.4c0.7,3.4,2.9,5,6.3,5.1
			c3.5,0.1,6.9-2.1,9.2-4.3c0.4,2.7,2.2,4.5,5.6,4.5c1.3,0,2.6-0.3,3.9-0.9c-1.5,3.2-2.7,6-3.2,7.7c-1.4,4.4-1,6.4,0.1,7.9
			c0.4,0.6,0.9,0.5,1.2-0.1c3.5-8,7.1-15.3,10.5-21.5c0.2,1.8,0.9,3.5,2.4,4.8c2.5,2.3,5.5,3,10.2,2.7c4.5-0.3,8.7-2.1,11.6-5.8
			c0.6,3,2.6,5,5.6,5c3.5,0,6.8-2.8,9.1-5.8c-0.1,3.7,2.1,6.2,6,5.9c7.7-0.6,14.2-11.4,17.7-21.6c2.2,0,5.3-0.8,8.5-2.7
			c-3.1,3.5-7.5,8.8-8.9,13.5c-1.7,5.8,0.4,10.7,5.9,10.9c2.7,0.1,5.5-1.3,7.6-3.6c0.7,2.2,2.4,3.5,5.4,3.5c4,0,8.6-3,10.7-7.5
			c0.9-1.8,1.1-3.3,0.5-4.5C237.9,56.8,237.4,56.8,237,57.4z M121.9,47.3c5-9.2,10.3-17.2,11.2-16.6c0.9,0.6-3.1,12.1-13,20.1
			C120.7,49.6,121.2,48.5,121.9,47.3z M89.2,66.9c-2.8-0.1-1.9-6.4,1.9-12.6c4-6.4,9.2-11.1,11.5-10.9c2.1,0.2,1.4,4.7-3.1,12.6
			C95.9,62.4,92.2,67,89.2,66.9z M149.8,65.8c-2-1.7-1.7-6,0.1-10.5c0.9-1.5,1.7-2.8,2.4-4.1c3.4-5.5,7.8-9.1,9.6-8.3
			c1.8,0.9,1,6.8-1.8,12.6C156.7,62.4,152.1,67.6,149.8,65.8z M176.5,66.7c-2.8-0.1-2-6.3,1.9-12.5c4-6.3,9.2-10.9,11.4-10.8
			c2.1,0.1,1.4,4.7-3,12.5C183.1,62.4,179.3,66.8,176.5,66.7z"/>
		<path d="M238.2,40.1c0.9-1,1.4-3,0.5-4.8c-0.9-1.9-3-2.8-4.2-1.6c-1.2,1.2-1.5,3.4-0.4,5.3
			C235.2,40.9,237.2,41.1,238.2,40.1z"/>
	</g>
</svg>
