<svg version="1.1" id="Layer_1" xmlns="http://www.w3.org/2000/svg" xmlns:xlink="http://www.w3.org/1999/xlink" x="0px" y="0px" viewBox="0 0 180 60" style="enable-background:new 0 0 180 60;" xml:space="preserve">
<g fill="#00A5E8">
	<path d="M32.21,12.92c1.02-2.15,1.23-3.99,0.61-6.03c-0.61-1.74-2.15-3.78-3.68-5.11c-2.25-1.94-5.62-1.64-9.31-0.2C12.07,4.63-0.31,17.11,0,31.83c0.1,5.62,2.86,10.02,5.93,11.66c3.78,2.05,9.51,2.15,14.42-1.43c2.86-2.15,7.26-7.26,5.62-11.97c-0.41-0.82-1.12-0.82-1.43-0.1C19.33,40.22,11.97,44.82,7.47,41.35c-3.37-2.76-3.99-12.99,2.05-23.11C15.75,7.9,26.28,2.28,28.23,4.43c1.64,1.64-0.82,5.62-2.05,9.2c-1.02,3.48,0.1,5.62,1.64,6.65c0.82,0.61,1.33,0.1,1.53-0.41C30.17,17.82,31.19,15.17,32.21,12.92z"/>
	<path d="M89.07,17.11c0.82-0.92,1.33-2.86,0.51-4.6c-0.82-1.84-2.86-2.66-3.99-1.53s-1.43,3.27-0.41,5.11C86.11,17.82,88.05,18.03,89.07,17.11z"/>
	<path d="M177.84,33.68c-2.15,4.81-5.83,9.31-9,9.51c-2.25,0.1-2.35-2.56-0.72-6.55c1.43-3.48,4.3-8.18,5.73-11.25c1.64-3.48,1.12-6.44,0.1-7.47c-0.61-0.61-1.02-0.41-1.64,0.41c-2.56,3.58-7.16,11.76-8.79,16.87c-0.2,0.72-0.41,1.33-0.61,1.94c-2.15,3.68-4.7,6.34-6.95,6.24c-2.15-0.1-2.86-2.86-1.74-6.65c1.12-3.48,4.6-8.28,7.87-12.07c2.05-2.35,0.41-5.62-0.92-7.06c-0.61-0.72-1.12-0.61-2.15,0.1c-2.56,1.84-5.22,2.97-7.67,3.27c1.43-4.81,2.15-8.79,0-8.79c-2.76,0.2-9.31,9.61-3.78,11.66c-3.27,10.23-9.51,18.61-13.91,19.12c-2.15,0.2-2.45-2.35-0.82-6.34c1.53-3.58,5.22-8.9,6.55-12.07c1.53-3.48,1.02-6.34-0.1-7.57c-0.61-0.61-1.12-0.41-1.64,0.41c-0.51,0.72-1.33,2.15-2.45,3.89c0-2.45-1.33-4.6-3.99-4.6c-3.58,0-9,3.17-14.52,11.15c-1.64,2.45-2.66,4.91-3.27,7.26c-2.35,4.3-6.34,8.59-12.48,8.79c2.56-1.64,5.22-4.91,7.26-9.51c2.56-5.62,3.99-11.86,0.82-15.34c-2.97-3.07-7.06-1.12-10.12,1.43c0.1-1.12-0.1-2.25-0.41-3.07c-0.41-0.82-0.92-0.92-1.64-0.1c-2.76,3.68-8.39,13.7-12.68,22.29c-1.74,2.15-3.68,3.58-5.42,3.58c-2.25,0.1-2.35-2.56-0.72-6.55c1.43-3.48,4.3-8.18,5.73-11.25c1.64-3.48,1.12-6.44,0.1-7.47c-0.61-0.61-1.02-0.41-1.64,0.41c-2.56,3.58-7.16,11.76-8.79,16.87c0,0.1,0,0.1,0,0.2c-2.76,4.4-6.75,8.08-9.61,7.87c-3.07-0.31-2.35-6.03,0.41-12.78c6.14-3.99,13.91-12.27,16.06-20.86c0.82-3.27,0.41-5.73-1.64-7.57c-0.92-0.82-1.94-0.82-2.97,0.41c-6.85,7.06-14.83,19.74-17.28,31.7c-0.1,0.41-0.1,0.72-0.2,1.02c-2.45,4.19-5.73,8.08-8.39,8.28c-2.35,0.1-2.35-2.86-0.61-6.75c1.64-3.68,5.11-8.79,6.65-12.07c1.64-3.48,1.12-6.44,0.1-7.67c-0.51-0.61-1.02-0.51-1.64,0.41c-0.82,1.12-1.64,2.56-2.45,4.19c0.1-2.66-1.23-5.01-4.19-5.01c-3.48,0-8.9,3.07-14.52,11.25c-5.73,8.39-4.4,17.18,2.05,17.18c3.37,0,6.44-2.56,8.69-5.42c0,3.27,1.94,5.52,5.62,5.62c3.07,0.2,6.44-2.35,8.69-5.22c0.72,3.27,2.76,4.81,6.03,4.91c3.37,0.1,6.65-2.05,8.79-4.09c0.41,2.56,2.15,4.3,5.42,4.3c1.23,0,2.45-0.31,3.78-0.82c-1.43,3.07-2.56,5.73-3.07,7.36c-1.33,4.19-0.92,6.14,0.1,7.57c0.41,0.61,0.82,0.51,1.12-0.1c3.37-7.67,6.85-14.73,10.12-20.66c0.2,1.74,0.82,3.37,2.35,4.6c2.45,2.25,5.32,2.86,9.82,2.56c4.3-0.31,8.39-2.05,11.15-5.62c0.61,2.86,2.45,4.81,5.42,4.81c3.37,0,6.55-2.66,8.79-5.62c-0.1,3.58,2.05,5.93,5.73,5.62c7.36-0.61,13.7-10.94,16.98-20.76c2.15,0,5.11-0.82,8.18-2.56c-2.97,3.37-7.26,8.49-8.59,12.99c-1.64,5.62,0.41,10.33,5.62,10.43c2.56,0.1,5.32-1.23,7.26-3.48c0.72,2.15,2.35,3.37,5.22,3.37c3.89,0,8.28-2.86,10.33-7.26c0.82-1.74,1.02-3.17,0.51-4.3C178.76,33.16,178.25,33.16,177.84,33.68z M67.19,23.96C72,15.17,77.11,7.39,77.93,8.01c0.92,0.61-2.97,11.66-12.48,19.33C66.06,26.21,66.58,25.19,67.19,23.96z M35.79,42.88c-2.66-0.1-1.84-6.14,1.84-12.07c3.89-6.14,8.79-10.64,11.04-10.43c2.05,0.2,1.33,4.5-2.97,12.07C42.24,38.48,38.66,42.98,35.79,42.88z M94.09,41.75c-1.94-1.64-1.64-5.73,0.1-10.12c0.82-1.43,1.64-2.66,2.35-3.99c3.27-5.32,7.47-8.79,9.2-7.98c1.74,0.82,0.92,6.55-1.74,12.07C100.63,38.48,96.23,43.49,94.09,41.75z M119.75,42.67c-2.66-0.1-1.94-6.03,1.84-12.07c3.89-6.03,8.79-10.43,10.94-10.43c2.05,0.1,1.33,4.5-2.86,12.07C126.09,38.48,122.41,42.78,119.75,42.67z"/>
	<path d="M179.07,17.11c0.82-0.92,1.33-2.86,0.51-4.6c-0.82-1.84-2.86-2.66-3.99-1.53c-1.12,1.12-1.43,3.27-0.41,5.11C176.21,17.82,178.05,18.03,179.07,17.11z"/>
</g>
</svg>
